<mxfile host="app.diagrams.net" modified="2022-11-06T18:34:29.118Z" agent="5.0 (Windows NT 10.0; Win64; x64) AppleWebKit/537.36 (KHTML, like Gecko) Chrome/107.0.0.0 Safari/537.36" etag="5w0ynmH-w2GsDR_u_55a" version="20.5.2" type="github">
  <diagram id="tXUHp35mTHhlbV8xP6Yt" name="Page-1">
    <mxGraphModel dx="1422" dy="762" grid="1" gridSize="10" guides="1" tooltips="1" connect="1" arrows="1" fold="1" page="1" pageScale="1" pageWidth="827" pageHeight="1169" math="0" shadow="0">
      <root>
        <mxCell id="0" />
        <mxCell id="1" parent="0" />
        <mxCell id="jAtWPYXS9YsQFNCpO2Ou-4" style="edgeStyle=orthogonalEdgeStyle;rounded=0;orthogonalLoop=1;jettySize=auto;html=1;entryX=0;entryY=0.5;entryDx=0;entryDy=0;" edge="1" parent="1" source="jAtWPYXS9YsQFNCpO2Ou-2" target="jAtWPYXS9YsQFNCpO2Ou-3">
          <mxGeometry relative="1" as="geometry">
            <mxPoint x="160" y="370" as="targetPoint" />
          </mxGeometry>
        </mxCell>
        <mxCell id="jAtWPYXS9YsQFNCpO2Ou-10" style="edgeStyle=orthogonalEdgeStyle;rounded=0;orthogonalLoop=1;jettySize=auto;html=1;exitX=1;exitY=0.5;exitDx=0;exitDy=0;" edge="1" parent="1" source="jAtWPYXS9YsQFNCpO2Ou-2" target="jAtWPYXS9YsQFNCpO2Ou-5">
          <mxGeometry relative="1" as="geometry" />
        </mxCell>
        <mxCell id="jAtWPYXS9YsQFNCpO2Ou-16" style="edgeStyle=orthogonalEdgeStyle;rounded=0;orthogonalLoop=1;jettySize=auto;html=1;entryX=0;entryY=0.5;entryDx=0;entryDy=0;" edge="1" parent="1" source="jAtWPYXS9YsQFNCpO2Ou-3" target="jAtWPYXS9YsQFNCpO2Ou-14">
          <mxGeometry relative="1" as="geometry" />
        </mxCell>
        <mxCell id="jAtWPYXS9YsQFNCpO2Ou-2" value="Splitter en plusieurs page" style="rounded=1;whiteSpace=wrap;html=1;" vertex="1" parent="1">
          <mxGeometry x="100" y="180" width="120" height="60" as="geometry" />
        </mxCell>
        <mxCell id="jAtWPYXS9YsQFNCpO2Ou-3" value="Extraire le texte de chaque page" style="rounded=1;whiteSpace=wrap;html=1;" vertex="1" parent="1">
          <mxGeometry x="200" y="330" width="120" height="60" as="geometry" />
        </mxCell>
        <mxCell id="jAtWPYXS9YsQFNCpO2Ou-11" style="edgeStyle=orthogonalEdgeStyle;rounded=0;orthogonalLoop=1;jettySize=auto;html=1;" edge="1" parent="1" source="jAtWPYXS9YsQFNCpO2Ou-5" target="jAtWPYXS9YsQFNCpO2Ou-7">
          <mxGeometry relative="1" as="geometry" />
        </mxCell>
        <mxCell id="jAtWPYXS9YsQFNCpO2Ou-5" value="Prétraitement des scan" style="rounded=1;whiteSpace=wrap;html=1;" vertex="1" parent="1">
          <mxGeometry x="280" y="180" width="120" height="60" as="geometry" />
        </mxCell>
        <mxCell id="jAtWPYXS9YsQFNCpO2Ou-13" style="edgeStyle=orthogonalEdgeStyle;rounded=0;orthogonalLoop=1;jettySize=auto;html=1;exitX=1;exitY=0.5;exitDx=0;exitDy=0;" edge="1" parent="1" source="jAtWPYXS9YsQFNCpO2Ou-7" target="jAtWPYXS9YsQFNCpO2Ou-12">
          <mxGeometry relative="1" as="geometry" />
        </mxCell>
        <mxCell id="jAtWPYXS9YsQFNCpO2Ou-7" value="Zonning Yolo" style="rounded=1;whiteSpace=wrap;html=1;" vertex="1" parent="1">
          <mxGeometry x="460" y="180" width="120" height="60" as="geometry" />
        </mxCell>
        <mxCell id="jAtWPYXS9YsQFNCpO2Ou-9" style="edgeStyle=orthogonalEdgeStyle;rounded=0;orthogonalLoop=1;jettySize=auto;html=1;entryX=0;entryY=0.5;entryDx=0;entryDy=0;" edge="1" parent="1" source="jAtWPYXS9YsQFNCpO2Ou-8" target="jAtWPYXS9YsQFNCpO2Ou-2">
          <mxGeometry relative="1" as="geometry" />
        </mxCell>
        <mxCell id="jAtWPYXS9YsQFNCpO2Ou-8" value="Documents" style="sketch=0;pointerEvents=1;shadow=0;dashed=0;html=1;strokeColor=none;fillColor=#505050;labelPosition=center;verticalLabelPosition=top;verticalAlign=bottom;outlineConnect=0;align=center;shape=mxgraph.office.concepts.documents;horizontal=1;" vertex="1" parent="1">
          <mxGeometry x="54" y="80" width="46" height="54" as="geometry" />
        </mxCell>
        <mxCell id="jAtWPYXS9YsQFNCpO2Ou-17" style="edgeStyle=orthogonalEdgeStyle;rounded=0;orthogonalLoop=1;jettySize=auto;html=1;entryX=0.5;entryY=0;entryDx=0;entryDy=0;" edge="1" parent="1" source="jAtWPYXS9YsQFNCpO2Ou-12" target="jAtWPYXS9YsQFNCpO2Ou-14">
          <mxGeometry relative="1" as="geometry" />
        </mxCell>
        <mxCell id="jAtWPYXS9YsQFNCpO2Ou-12" value="OCR" style="rounded=1;whiteSpace=wrap;html=1;" vertex="1" parent="1">
          <mxGeometry x="630" y="180" width="120" height="60" as="geometry" />
        </mxCell>
        <mxCell id="jAtWPYXS9YsQFNCpO2Ou-20" value="Application de classification" style="rounded=0;whiteSpace=wrap;html=1;fillColor=none;dashed=1;labelPosition=center;verticalLabelPosition=top;align=center;verticalAlign=bottom;" vertex="1" parent="1">
          <mxGeometry x="17" y="150" width="793" height="380" as="geometry" />
        </mxCell>
        <mxCell id="jAtWPYXS9YsQFNCpO2Ou-19" style="edgeStyle=orthogonalEdgeStyle;rounded=0;orthogonalLoop=1;jettySize=auto;html=1;" edge="1" parent="1" source="jAtWPYXS9YsQFNCpO2Ou-14" target="jAtWPYXS9YsQFNCpO2Ou-18">
          <mxGeometry relative="1" as="geometry" />
        </mxCell>
        <mxCell id="jAtWPYXS9YsQFNCpO2Ou-14" value="Prédiction du sujet" style="rounded=1;whiteSpace=wrap;html=1;" vertex="1" parent="1">
          <mxGeometry x="510" y="330" width="120" height="60" as="geometry" />
        </mxCell>
        <mxCell id="jAtWPYXS9YsQFNCpO2Ou-18" value="Envoi au service concerné" style="rounded=1;whiteSpace=wrap;html=1;" vertex="1" parent="1">
          <mxGeometry x="510" y="440" width="120" height="60" as="geometry" />
        </mxCell>
      </root>
    </mxGraphModel>
  </diagram>
</mxfile>
